<?xml version="1.0" encoding="UTF-8"?>
<svg id="Capa_1" data-name="Capa 1" xmlns="http://www.w3.org/2000/svg" viewBox="0 0 100 29.08">
  <defs>
    <style>
      .cls-1 {
        fill: #e10717;
        stroke-width: 0px;
      }
    </style>
  </defs>
  <g>
    <g>
      <path class="cls-1" d="m52.63,6.54v.02c0,.22.12.3.41.3.17,0,.34-.04.51-.17v-.47c-.16-.03-.33-.05-.47-.05-.38,0-.45.18-.45.37Z"/>
      <path class="cls-1" d="m62.77,5.24c0-.26-.14-.37-.39-.37-.32,0-.49.16-.49.43v.28c.21.02.41.03.47.03.25,0,.41-.09.41-.37Z"/>
      <path class="cls-1" d="m68.71,0H31.28c-.34,0-.62.28-.62.62v9.45c0,.34.28.62.62.62h37.43c.34,0,.62-.28.62-.62V.62c0-.34-.28-.62-.62-.62Zm-30.36,7.19c0,.22-.21.42-.45.42s-.47-.19-.47-.42v-2.26l-.75,1.47c-.09.17-.25.25-.43.25s-.34-.08-.43-.25l-.75-1.47v2.26c0,.22-.22.42-.47.42s-.45-.19-.45-.42v-3.91c0-.25.2-.43.47-.43.21,0,.38.09.46.26l1.17,2.32,1.17-2.33c.09-.19.27-.25.45-.25.27,0,.47.2.47.43v3.91Zm1.79,0c0,.23-.2.41-.45.41s-.45-.18-.45-.41v-2.59c0-.22.2-.4.45-.4s.45.18.45.4v2.59Zm-.45-3.41c-.29,0-.51-.21-.51-.46s.22-.46.51-.46.51.21.51.46-.22.46-.51.46Zm4.12,3.41c0,.22-.16.4-.45.4s-.45-.18-.45-.4v-1.72c0-.33-.16-.53-.43-.53-.14,0-.3.05-.51.14,0,.05.01.09.01.13v1.99c0,.22-.15.4-.45.4s-.45-.18-.45-.4v-1.99c0-.22-.03-.24-.05-.28-.09-.12-.11-.17-.11-.26,0-.22.19-.38.44-.38.14,0,.26.07.35.19.3-.2.61-.28.87-.28.83,0,1.24.51,1.24,1.28v1.72Zm1.82,0c0,.23-.2.41-.45.41s-.45-.18-.45-.41v-2.59c0-.22.2-.4.45-.4s.45.18.45.4v2.59Zm-.45-3.41c-.29,0-.51-.21-.51-.46s.22-.46.51-.46.51.21.51.46-.22.46-.51.46Zm5.9,3.41c0,.22-.15.4-.45.4s-.45-.18-.45-.4v-1.82c0-.23-.14-.41-.38-.41-.17,0-.35.09-.53.23,0,.06.01.11.01.17v1.84c0,.22-.15.4-.45.4s-.45-.18-.45-.4v-1.7c0-.3-.05-.53-.34-.53-.17,0-.36.07-.56.17,0,.02,0,.05,0,.07v1.99c0,.22-.15.4-.45.4s-.45-.18-.45-.4v-1.99c0-.22-.03-.24-.05-.28-.09-.12-.11-.18-.11-.25,0-.24.2-.39.43-.39.15,0,.26.07.35.18.3-.18.61-.29.89-.29s.53.1.76.29c.36-.19.64-.29.99-.29.78,0,1.26.47,1.26,1.18v1.84Zm3.28.39c-.24,0-.41-.07-.56-.28-.24.2-.52.3-.89.3-.76,0-1.17-.41-1.17-1.04v-.02c0-.67.43-1.01,1.3-1.01.18,0,.35.01.52.07v-.21c0-.31-.16-.45-.5-.45-.18,0-.3.05-.43.1-.05.02-.12.07-.25.07-.28,0-.38-.22-.38-.38,0-.39.58-.55,1.12-.55.95,0,1.34.47,1.34,1.36v1.22c0,.2.1.18.21.22.1.04.15.11.15.25,0,.21-.13.34-.47.34Zm2.55-2.57c-.28-.01-.4-.03-.63.07,0,.05.01.09.01.13v1.99c0,.23-.2.41-.45.41s-.45-.18-.45-.41v-1.99c0-.15-.02-.23-.07-.31-.05-.07-.09-.12-.09-.22,0-.24.21-.39.45-.39.14,0,.26.09.35.2.3-.18.61-.28.82-.28.42,0,.54.17.54.39,0,.26-.21.43-.46.41Zm3.24,2.59c-.16,0-.29-.07-.37-.18l-.89-1.2-.07.07v.91c0,.23-.2.41-.45.41s-.45-.18-.45-.41v-3.98c0-.23.2-.41.45-.41s.45.18.45.41v2.09l.91-.98c.08-.08.2-.11.31-.11.25,0,.44.16.44.39,0,.11-.04.2-.13.28h0l-.8.85.97,1.28c.05.07.07.17.07.24-.01.22-.2.36-.44.36Zm2.28-.76c.21,0,.38-.05.59-.14.03-.01.09-.04.2-.04.32,0,.41.21.41.36,0,.46-.84.58-1.26.58-.87,0-1.37-.5-1.37-1.15v-1.1c0-.66.49-1.17,1.4-1.17.86,0,1.29.45,1.29,1.12s-.39,1-1.28,1c-.17,0-.32-.01-.51-.04v.22c0,.22.17.37.53.37Zm3.15.74c-1.02,0-1.28-.5-1.28-1.4v-2.55c0-.22.16-.4.45-.4s.45.18.45.4v.73h.49c.24,0,.43.17.43.4s-.19.39-.43.39h-.49v.99c0,.49.04.66.36.66.06,0,.1,0,.11,0,.41,0,.54.11.54.35,0,.38-.3.43-.63.43Z"/>
    </g>
    <g>
      <polygon class="cls-1" points="35.21 11.9 32.64 11.9 30.66 24.32 38.71 24.32 39.1 21.89 33.62 21.89 35.21 11.9"/>
      <path class="cls-1" d="m48.48,21.69l1.08-6.73h-2.47l-.98,6.03c-.45.46-.67.61-.98.8-.43.25-.8.36-1.21.36-.55,0-.76-.19-.82-.26-.06-.06-.11-.16-.11-.4,0-.11.01-.25.04-.41l.57-3.53c.02-.13.02-.22.02-.32,0-.87-.54-1.68-1.59-2.42l-.35-.25-1.61,1.87.63.5c.34.29.43.44.45.49l-.63,3.89c-.04.23-.04.43-.04.6,0,.3.04.57.13.83.38,1.08,1.44,1.68,3,1.68,1,0,1.81-.23,2.62-.76.13.18.29.33.48.45.33.24.73.37,1.19.37.79,0,1.53-.37,2.2-1.09l.37-.4-1.92-1.36-.05.06Z"/>
      <path class="cls-1" d="m55.69,14.78c-1.27,0-2.49.52-3.45,1.46-.9.89-1.49,2.09-1.7,3.47-.06.38-.09.71-.09,1.01,0,.94.24,1.73.72,2.35.68.89,1.73,1.34,3.13,1.34,1.29,0,2.68-.4,4.02-1.17l.4-.23-.99-1.92-.42.2c-.46.22-.92.41-1.34.57-.44.15-.87.23-1.32.23-.91,0-1.24-.3-1.41-.52-.2-.28-.3-.63-.3-1.06,0-.19.01-.39.04-.6.12-.74.39-1.38.83-1.94.19-.25.34-.42.73-.68.25-.15.58-.23.94-.23.46,0,.75.12.85.23h.01c.08.09.18.22.18.53,0,.07-.01.16-.02.26l-.07.58h2.48l.07-.39c.04-.23.04-.43.04-.61,0-.83-.28-1.53-.83-2.03-.61-.55-1.52-.86-2.52-.86Z"/>
      <path class="cls-1" d="m66.87,14.98l-.97,5.92c-.05.16-.1.28-.16.34v.02c-.06.06-.12.11-.18.17l-.06.05c-.09.08-.2.17-.36.29l-.04.03c-.14.13-.37.26-.59.34-.24.09-.61.15-.95.15-.54,0-.64-.13-.7-.21-.07-.09-.11-.24-.11-.45,0-.12.01-.26.04-.43l.57-3.59c.03-.11.03-.22.03-.31,0-.52-.2-1.06-.54-1.5-.24-.3-.58-.63-1.02-.97l-.36-.28-1.61,1.93.62.5c.35.3.42.46.44.49l-.63,3.99c-.04.23-.04.43-.04.6,0,.53.13,1.01.38,1.38.34.52.91.89,1.64,1.06.48.12.94.18,1.38.18.74,0,1.31-.17,1.76-.37l-.2,1.3c-.05.33-.18.61-.38.83-.21.18-.45.27-.74.27-.32,0-.4-.1-.46-.2-.07-.12-.1-.27-.1-.45,0-.11.01-.22.04-.33l.14-.59h-2.47l-.08.38c-.05.26-.08.51-.08.74,0,.65.19,1.26.55,1.76.52.68,1.27,1.03,2.24,1.03s1.84-.33,2.51-.92c.65-.57,1.1-1.44,1.26-2.46l.64-4.05,1.08-6.65h-2.47Z"/>
    </g>
  </g>
  <polygon class="cls-1" points="100 14.72 80.81 14.72 80.89 14.36 99.92 14.36 100 14.72"/>
  <polygon class="cls-1" points="19.19 14.72 0 14.72 .08 14.36 19.11 14.36 19.19 14.72"/>
</svg>