<?xml version="1.0" encoding="utf-8"?>
<!-- Generator: Adobe Illustrator 27.8.0, SVG Export Plug-In . SVG Version: 6.00 Build 0)  -->
<svg version="1.1" id="Capa_1" xmlns="http://www.w3.org/2000/svg" xmlns:xlink="http://www.w3.org/1999/xlink" x="0px" y="0px"
	 viewBox="0 0 144 144" style="enable-background:new 0 0 144 144;" xml:space="preserve">
<style type="text/css">
	.st0{fill:#FFEA00;}
	.st1{fill:#31287C;}
	.st2{fill:#E20613;}
	.st3{fill:#1D1D1B;}
</style>
<rect x="0" class="st0" width="144" height="144"/>
<g>
	<g>
		<path class="st1" d="M78.85,47.42v0.05c0,0.57,0.33,0.79,1.06,0.79c0.45,0,0.89-0.1,1.34-0.45v-1.23
			c-0.43-0.09-0.87-0.14-1.22-0.14C79.04,46.44,78.85,46.91,78.85,47.42z"/>
		<path class="st1" d="M105.27,44.04c0-0.69-0.36-0.96-1.03-0.96c-0.82,0-1.27,0.43-1.27,1.11v0.74c0.55,0.05,1.06,0.07,1.23,0.07
			C104.86,45,105.27,44.78,105.27,44.04z"/>
		<path class="st1" d="M120.75,30.38H23.22c-0.9,0-1.62,0.73-1.62,1.62v24.61c0,0.9,0.73,1.62,1.62,1.62h97.53
			c0.89,0,1.62-0.73,1.62-1.62V32.01C122.37,31.11,121.65,30.38,120.75,30.38z M41.65,49.12c0,0.58-0.55,1.08-1.18,1.08
			c-0.65,0-1.22-0.5-1.22-1.08v-5.9l-1.95,3.84c-0.22,0.45-0.65,0.65-1.13,0.65c-0.46,0-0.89-0.21-1.11-0.65l-1.95-3.84v5.9
			c0,0.58-0.57,1.08-1.23,1.08c-0.65,0-1.17-0.5-1.17-1.08V38.94c0-0.65,0.53-1.13,1.23-1.13c0.55,0,0.98,0.22,1.2,0.67l3.05,6.05
			l3.05-6.07c0.24-0.5,0.7-0.65,1.18-0.65c0.7,0,1.23,0.51,1.23,1.13V49.12z M46.31,49.1c0,0.6-0.51,1.06-1.18,1.06
			c-0.67,0-1.18-0.46-1.18-1.06v-6.76c0-0.57,0.51-1.05,1.18-1.05c0.67,0,1.18,0.48,1.18,1.05V49.1z M45.13,40.2
			c-0.75,0-1.34-0.55-1.34-1.2c0-0.67,0.58-1.2,1.34-1.2c0.75,0,1.34,0.55,1.34,1.2C46.46,39.67,45.88,40.2,45.13,40.2z M55.86,49.1
			c0,0.58-0.43,1.05-1.18,1.05c-0.75,0-1.18-0.46-1.18-1.05v-4.47c0-0.86-0.43-1.39-1.11-1.39c-0.36,0-0.79,0.12-1.32,0.36
			c0.02,0.12,0.03,0.22,0.03,0.33v5.18c0,0.58-0.39,1.05-1.18,1.05c-0.79,0-1.18-0.46-1.18-1.05v-5.2c0-0.57-0.07-0.62-0.14-0.72
			c-0.24-0.33-0.29-0.45-0.29-0.67c0-0.57,0.5-0.99,1.15-0.99c0.36,0,0.67,0.19,0.91,0.5c0.77-0.51,1.58-0.74,2.26-0.74
			c2.16,0,3.24,1.34,3.24,3.34V49.1z M60.61,49.1c0,0.6-0.51,1.06-1.18,1.06c-0.67,0-1.18-0.46-1.18-1.06v-6.76
			c0-0.57,0.51-1.05,1.18-1.05c0.67,0,1.18,0.48,1.18,1.05V49.1z M59.43,40.2c-0.75,0-1.34-0.55-1.34-1.2c0-0.67,0.58-1.2,1.34-1.2
			c0.75,0,1.34,0.55,1.34,1.2C60.76,39.67,60.18,40.2,59.43,40.2z M74.79,49.1c0,0.58-0.39,1.05-1.18,1.05
			c-0.79,0-1.18-0.46-1.18-1.05v-4.75c0-0.6-0.36-1.08-0.99-1.08c-0.45,0-0.91,0.22-1.37,0.6c0.02,0.15,0.03,0.29,0.03,0.45v4.78
			c0,0.58-0.39,1.05-1.18,1.05c-0.79,0-1.18-0.46-1.18-1.05v-4.44c0-0.79-0.14-1.39-0.89-1.39c-0.43,0-0.94,0.19-1.46,0.45
			c0.02,0.05,0.02,0.14,0.02,0.19v5.2c0,0.58-0.39,1.05-1.18,1.05c-0.79,0-1.18-0.46-1.18-1.05v-5.2c0-0.57-0.07-0.62-0.14-0.72
			c-0.24-0.33-0.29-0.46-0.29-0.65c0-0.62,0.53-1.01,1.11-1.01c0.39,0,0.69,0.19,0.91,0.48c0.77-0.48,1.58-0.75,2.31-0.75
			c0.72,0,1.37,0.26,1.99,0.75c0.93-0.5,1.66-0.75,2.59-0.75c2.02,0,3.27,1.23,3.27,3.07V49.1z M83.33,50.11
			c-0.63,0-1.06-0.17-1.46-0.72c-0.63,0.51-1.35,0.77-2.31,0.77c-1.99,0-3.05-1.08-3.05-2.71V47.4c0-1.75,1.13-2.62,3.39-2.62
			c0.46,0,0.91,0.03,1.35,0.17V44.4c0-0.81-0.43-1.18-1.3-1.18c-0.48,0-0.77,0.12-1.11,0.27c-0.14,0.05-0.33,0.17-0.65,0.17
			c-0.72,0-0.99-0.57-0.99-0.99c0-1.01,1.51-1.42,2.93-1.42c2.49,0,3.5,1.23,3.5,3.55v3.19c0,0.51,0.26,0.46,0.55,0.58
			c0.26,0.1,0.39,0.29,0.39,0.65C84.56,49.77,84.24,50.11,83.33,50.11z M89.98,43.43c-0.74-0.03-1.05-0.07-1.65,0.17
			c0.02,0.12,0.03,0.22,0.03,0.33v5.18c0,0.6-0.51,1.06-1.18,1.06c-0.67,0-1.18-0.46-1.18-1.06v-5.18c0-0.39-0.05-0.6-0.19-0.81
			c-0.14-0.17-0.24-0.31-0.24-0.57c0-0.62,0.55-1.03,1.17-1.03c0.36,0,0.67,0.22,0.91,0.53c0.79-0.46,1.58-0.74,2.13-0.74
			c1.08,0,1.41,0.45,1.41,1.03C91.18,43.02,90.63,43.46,89.98,43.43z M98.41,50.17c-0.43,0-0.75-0.17-0.98-0.48l-2.31-3.14
			l-0.19,0.17v2.38c0,0.6-0.51,1.06-1.18,1.06c-0.67,0-1.18-0.46-1.18-1.06V38.73c0-0.6,0.51-1.06,1.18-1.06
			c0.67,0,1.18,0.46,1.18,1.06v5.44l2.37-2.55c0.21-0.21,0.53-0.29,0.81-0.29c0.65,0,1.15,0.43,1.15,1.01c0,0.27-0.1,0.51-0.33,0.72
			h0.02l-2.09,2.21l2.52,3.33c0.12,0.17,0.19,0.45,0.19,0.63C99.53,49.81,99.03,50.17,98.41,50.17z M104.35,48.19
			c0.55,0,0.99-0.14,1.54-0.38c0.07-0.03,0.22-0.1,0.51-0.1c0.82,0,1.06,0.55,1.06,0.94c0,1.2-2.19,1.51-3.29,1.51
			c-2.26,0-3.57-1.3-3.57-3V44.3c0-1.73,1.27-3.05,3.65-3.05c2.25,0,3.36,1.18,3.36,2.91c0,1.65-1.01,2.61-3.33,2.61
			c-0.45,0-0.82-0.03-1.32-0.1v0.57C102.98,47.82,103.42,48.19,104.35,48.19z M112.54,50.11c-2.66,0-3.34-1.3-3.34-3.63v-6.65
			c0-0.58,0.43-1.05,1.18-1.05c0.75,0,1.18,0.48,1.18,1.05v1.9h1.27c0.63,0,1.13,0.45,1.13,1.03c0,0.58-0.5,1.01-1.13,1.01h-1.27
			v2.59c0,1.27,0.1,1.71,0.93,1.71c0.15,0,0.26-0.02,0.29-0.02c1.08,0,1.41,0.29,1.41,0.93C114.19,49.98,113.4,50.11,112.54,50.11z"
			/>
	</g>
	<g>
		<polygon class="st2" points="33.46,61.38 26.76,61.38 21.6,93.75 42.59,93.75 43.6,87.42 29.31,87.42 		"/>
		<path class="st2" d="M68.04,86.9l2.81-17.53h-6.44L61.86,85.1c-1.18,1.2-1.74,1.59-2.55,2.09c-1.12,0.64-2.09,0.93-3.14,0.93
			c-1.44,0-1.98-0.5-2.14-0.68c-0.14-0.16-0.29-0.41-0.29-1.05c0-0.28,0.04-0.65,0.12-1.07l1.48-9.2c0.06-0.33,0.06-0.58,0.06-0.83
			c0-2.26-1.4-4.38-4.16-6.3l-0.92-0.64l-4.19,4.89l1.63,1.3c0.89,0.75,1.12,1.15,1.18,1.27L47.3,85.95
			c-0.11,0.59-0.11,1.11-0.11,1.58c0,0.78,0.11,1.48,0.33,2.16c0.99,2.82,3.76,4.37,7.81,4.37c2.61,0,4.73-0.61,6.83-1.99
			c0.33,0.46,0.75,0.85,1.25,1.17c0.87,0.63,1.91,0.96,3.1,0.96c2.06,0,3.98-0.96,5.72-2.85l0.95-1.04l-5.01-3.54L68.04,86.9z"/>
		<path class="st2" d="M86.83,68.9c-3.3,0-6.49,1.35-8.99,3.81c-2.36,2.31-3.88,5.44-4.42,9.04c-0.16,0.99-0.23,1.86-0.23,2.64
			c0,2.44,0.63,4.5,1.87,6.13c1.78,2.32,4.52,3.5,8.15,3.5c3.36,0,6.99-1.05,10.49-3.05l1.03-0.59l-2.58-5.02l-1.09,0.52
			c-1.21,0.58-2.39,1.08-3.49,1.47c-1.15,0.4-2.27,0.59-3.44,0.59c-2.36,0-3.23-0.79-3.66-1.36c-0.52-0.73-0.77-1.64-0.77-2.77
			c0-0.5,0.04-1.01,0.12-1.56c0.3-1.93,1.01-3.59,2.16-5.07c0.5-0.65,0.89-1.09,1.91-1.76c0.65-0.39,1.52-0.6,2.44-0.6
			c1.2,0,1.95,0.32,2.22,0.6l0.04,0.03c0.2,0.19,0.47,0.53,0.47,1.36c0,0.19-0.03,0.42-0.06,0.69l-0.19,1.51h6.46l0.19-1.02
			c0.11-0.59,0.11-1.11,0.11-1.58c0-2.15-0.74-3.97-2.16-5.29C91.8,69.72,89.42,68.9,86.83,68.9z"/>
		<path class="st2" d="M115.96,69.42l-2.52,15.43c-0.13,0.42-0.27,0.72-0.42,0.9l-0.04,0.04c-0.12,0.15-0.27,0.3-0.44,0.43
			l-0.16,0.13c-0.23,0.2-0.53,0.44-0.93,0.74l-0.09,0.07c-0.36,0.33-0.97,0.68-1.54,0.9c-0.63,0.24-1.58,0.4-2.48,0.4
			c-1.4,0-1.68-0.35-1.84-0.55c-0.19-0.23-0.29-0.63-0.29-1.18c0-0.32,0.04-0.68,0.12-1.12l1.48-9.35c0.07-0.3,0.07-0.57,0.07-0.81
			c0-1.35-0.51-2.77-1.4-3.91c-0.62-0.78-1.51-1.63-2.66-2.53l-0.95-0.74l-4.2,5.04l1.62,1.29c0.92,0.78,1.11,1.19,1.14,1.28
			L98.8,86.3c-0.11,0.59-0.11,1.11-0.11,1.58c0,1.39,0.34,2.64,0.99,3.6c0.89,1.36,2.37,2.32,4.28,2.75
			c1.24,0.31,2.45,0.47,3.59,0.47c1.92,0,3.42-0.44,4.58-0.96l-0.53,3.38c-0.13,0.86-0.46,1.59-0.99,2.17
			c-0.55,0.48-1.17,0.7-1.93,0.7c-0.83,0-1.05-0.27-1.2-0.52c-0.18-0.31-0.27-0.7-0.27-1.17c0-0.28,0.03-0.57,0.1-0.85l0.36-1.53
			h-6.43l-0.2,1c-0.13,0.67-0.2,1.32-0.2,1.94c0,1.7,0.49,3.28,1.43,4.59c1.35,1.78,3.31,2.68,5.84,2.68c2.47,0,4.8-0.86,6.54-2.41
			c1.69-1.48,2.85-3.76,3.29-6.42l1.66-10.57l2.81-17.34H115.96z"/>
	</g>
	<g>
		<path class="st3" d="M24.45,109.46h-1.17l-0.65,3.17h-0.46l0.65-3.17h-1.17l0.08-0.4h2.81L24.45,109.46z"/>
		<path class="st3" d="M26.45,112.63h-0.4l0.08-0.39h-0.01c-0.21,0.29-0.55,0.45-0.9,0.45c-0.47,0-0.7-0.21-0.7-0.66
			c0-0.11,0.03-0.3,0.07-0.5l0.31-1.47h0.41L25,111.55c-0.02,0.09-0.06,0.31-0.06,0.4c0,0.24,0.19,0.36,0.44,0.36
			c0.46,0,0.81-0.41,0.9-0.84l0.29-1.43h0.41L26.45,112.63z"/>
		<path class="st3" d="M29.64,110.8c0.02-0.29-0.23-0.44-0.52-0.44c-0.25,0-0.54,0.07-0.54,0.33c0,0.24,0.33,0.34,0.66,0.47
			c0.33,0.14,0.67,0.32,0.67,0.72c0,0.57-0.54,0.8-1.03,0.8c-0.57,0-1.02-0.22-1.02-0.87h0.41c-0.02,0.38,0.3,0.5,0.64,0.5
			c0.27,0,0.57-0.1,0.57-0.39c0-0.25-0.33-0.35-0.66-0.49c-0.34-0.14-0.67-0.31-0.67-0.7c0-0.48,0.47-0.74,0.94-0.74
			c0.47,0,0.95,0.21,0.95,0.82H29.64z"/>
		<path class="st3" d="M35.13,110.86c0-0.31-0.21-0.5-0.53-0.5c-0.64,0-0.98,0.65-0.98,1.21c0,0.4,0.16,0.74,0.62,0.74
			c0.36,0,0.62-0.21,0.74-0.53h0.41c-0.15,0.57-0.57,0.9-1.15,0.9c-0.69,0-1.04-0.42-1.04-1.11c0-0.82,0.49-1.59,1.39-1.59
			c0.57,0,0.93,0.28,0.94,0.88H35.13z"/>
		<path class="st3" d="M37.96,109.98c0.67,0,1.05,0.38,1.05,1.07c0,0.84-0.51,1.63-1.39,1.63c-0.66,0-1.06-0.45-1.06-1.08
			C36.55,110.76,37.08,109.98,37.96,109.98z M37.66,112.31c0.6,0,0.94-0.71,0.94-1.22c0-0.4-0.21-0.73-0.66-0.73
			c-0.63,0-0.96,0.71-0.96,1.24C36.97,112.03,37.2,112.31,37.66,112.31z"/>
		<path class="st3" d="M40.53,110.04h0.38l-0.09,0.38l0.01,0.01c0.21-0.27,0.53-0.45,0.88-0.45c0.32,0,0.56,0.13,0.63,0.46
			c0.19-0.28,0.53-0.46,0.86-0.46c0.36,0,0.7,0.16,0.7,0.58c0,0.15-0.04,0.37-0.07,0.51l-0.32,1.55H43.1l0.35-1.64
			c0.02-0.08,0.04-0.2,0.04-0.28c0-0.2-0.17-0.35-0.38-0.35c-0.23,0-0.49,0.17-0.63,0.35c-0.14,0.15-0.19,0.36-0.23,0.58l-0.28,1.33
			h-0.41l0.3-1.47c0.04-0.2,0.08-0.39,0.08-0.45c0-0.22-0.13-0.34-0.35-0.34c-0.23,0-0.47,0.16-0.62,0.33
			c-0.18,0.18-0.21,0.33-0.27,0.58l-0.28,1.35h-0.41L40.53,110.04z"/>
		<path class="st3" d="M45.41,110.04h0.39l-0.09,0.37h0.01c0.25-0.33,0.5-0.43,0.83-0.43c0.64,0,0.99,0.43,0.99,1.06
			c0,0.78-0.52,1.64-1.4,1.64c-0.31,0-0.69-0.11-0.78-0.45h-0.01l-0.27,1.38h-0.41L45.41,110.04z M46.48,110.36
			c-0.63,0-0.98,0.75-0.98,1.28c0,0.38,0.22,0.67,0.63,0.67c0.66,0,1-0.7,1-1.27C47.13,110.62,46.94,110.36,46.48,110.36z"/>
		<path class="st3" d="M49.05,110.04h0.39l-0.12,0.55h0.01c0.19-0.35,0.49-0.61,0.92-0.61c0.05,0,0.1-0.01,0.15,0l-0.1,0.45
			c-0.04,0-0.08,0-0.12,0c-0.1,0-0.15,0-0.25,0.03c-0.23,0.06-0.4,0.21-0.54,0.42c-0.11,0.16-0.17,0.41-0.21,0.6l-0.24,1.14h-0.41
			L49.05,110.04z"/>
		<path class="st3" d="M51.18,110.82c0.08-0.57,0.56-0.84,1.09-0.84c0.49,0,0.92,0.13,0.92,0.66c0,0.15-0.05,0.33-0.08,0.47
			l-0.16,0.7c-0.02,0.1-0.07,0.25-0.07,0.37c0,0.12,0.05,0.16,0.12,0.16c0.04,0,0.09-0.02,0.13-0.04l-0.06,0.32
			c-0.06,0.04-0.18,0.06-0.25,0.06c-0.23,0-0.35-0.14-0.33-0.36l-0.01-0.01c-0.18,0.24-0.42,0.37-0.84,0.37
			c-0.42,0-0.77-0.2-0.77-0.73c0-0.75,0.72-0.8,1.27-0.85c0.44-0.04,0.63-0.07,0.63-0.41c0-0.28-0.29-0.34-0.51-0.34
			c-0.32,0-0.63,0.13-0.68,0.46H51.18z M51.74,112.31c0.32,0,0.56-0.11,0.71-0.34c0.14-0.19,0.16-0.42,0.22-0.67h-0.01
			c-0.18,0.11-0.51,0.14-0.81,0.18c-0.3,0.05-0.56,0.14-0.56,0.47C51.29,112.19,51.51,112.31,51.74,112.31z"/>
		<path class="st3" d="M55.93,110.8c0.02-0.29-0.23-0.44-0.52-0.44c-0.25,0-0.54,0.07-0.54,0.33c0,0.24,0.33,0.34,0.66,0.47
			c0.33,0.14,0.67,0.32,0.67,0.72c0,0.57-0.54,0.8-1.03,0.8c-0.57,0-1.02-0.22-1.02-0.87h0.41c-0.02,0.38,0.3,0.5,0.64,0.5
			c0.27,0,0.57-0.1,0.57-0.39c0-0.25-0.33-0.35-0.66-0.49c-0.34-0.14-0.67-0.31-0.67-0.7c0-0.48,0.47-0.74,0.94-0.74
			s0.95,0.21,0.95,0.82H55.93z"/>
		<path class="st3" d="M61.61,112.63h-0.39l0.09-0.37H61.3c-0.25,0.33-0.5,0.43-0.83,0.43c-0.64,0-0.99-0.43-0.99-1.06
			c0-0.78,0.52-1.64,1.4-1.64c0.31,0,0.69,0.11,0.78,0.45h0.01l0.27-1.38h0.41L61.61,112.63z M60.54,112.31
			c0.63,0,0.98-0.74,0.98-1.28c0-0.38-0.22-0.67-0.63-0.67c-0.66,0-1,0.7-1,1.27C59.89,112.05,60.09,112.31,60.54,112.31z"/>
		<path class="st3" d="M63.51,111.46c-0.01,0.08-0.01,0.15-0.01,0.23c0,0.4,0.32,0.62,0.65,0.62c0.36,0,0.61-0.17,0.73-0.49h0.41
			c-0.13,0.57-0.59,0.87-1.14,0.87c-0.83,0-1.07-0.59-1.07-1.04c0-0.99,0.6-1.66,1.3-1.66c0.74,0,1.07,0.41,1.07,1.14
			c0,0.13-0.02,0.26-0.04,0.33H63.51z M65.03,111.09c0.03-0.36-0.13-0.73-0.59-0.73c-0.49,0-0.75,0.33-0.87,0.73H65.03z"/>
		<path class="st3" d="M70.23,110.8c0.02-0.29-0.23-0.44-0.52-0.44c-0.25,0-0.54,0.07-0.54,0.33c0,0.24,0.33,0.34,0.66,0.47
			c0.33,0.14,0.67,0.32,0.67,0.72c0,0.57-0.54,0.8-1.03,0.8c-0.57,0-1.02-0.22-1.02-0.87h0.41c-0.02,0.38,0.3,0.5,0.64,0.5
			c0.27,0,0.58-0.1,0.58-0.39c0-0.25-0.33-0.35-0.66-0.49c-0.34-0.14-0.67-0.31-0.67-0.7c0-0.48,0.47-0.74,0.94-0.74
			c0.47,0,0.95,0.21,0.95,0.82H70.23z"/>
		<path class="st3" d="M72.1,110.04h0.41l-0.53,2.58h-0.41L72.1,110.04z M72.61,109.58h-0.42l0.11-0.52h0.42L72.61,109.58z"/>
		<path class="st3" d="M73.9,111.46c-0.01,0.08-0.01,0.15-0.01,0.23c0,0.4,0.32,0.62,0.65,0.62c0.36,0,0.61-0.17,0.73-0.49h0.41
			c-0.13,0.57-0.59,0.87-1.14,0.87c-0.83,0-1.07-0.59-1.07-1.04c0-0.99,0.6-1.66,1.3-1.66c0.74,0,1.07,0.41,1.07,1.14
			c0,0.13-0.02,0.26-0.04,0.33H73.9z M75.42,111.09c0.03-0.36-0.13-0.73-0.59-0.73c-0.49,0-0.75,0.33-0.87,0.73H75.42z"/>
		<path class="st3" d="M77.3,110.04h0.38l-0.09,0.38l0.01,0.01c0.21-0.27,0.53-0.45,0.88-0.45c0.32,0,0.56,0.13,0.63,0.46
			c0.19-0.28,0.53-0.46,0.86-0.46c0.36,0,0.7,0.16,0.7,0.58c0,0.15-0.04,0.37-0.07,0.51l-0.32,1.55h-0.41l0.35-1.64
			c0.02-0.08,0.04-0.2,0.04-0.28c0-0.2-0.17-0.35-0.39-0.35c-0.23,0-0.49,0.17-0.63,0.35c-0.14,0.15-0.19,0.36-0.23,0.58l-0.28,1.33
			h-0.41l0.3-1.47c0.04-0.2,0.08-0.39,0.08-0.45c0-0.22-0.13-0.34-0.35-0.34c-0.23,0-0.47,0.16-0.62,0.33
			c-0.18,0.18-0.21,0.33-0.27,0.58l-0.28,1.35h-0.41L77.3,110.04z"/>
		<path class="st3" d="M82.19,110.04h0.39l-0.09,0.37h0.01c0.25-0.33,0.5-0.43,0.83-0.43c0.64,0,0.99,0.43,0.99,1.06
			c0,0.78-0.52,1.64-1.4,1.64c-0.31,0-0.69-0.11-0.78-0.45h-0.01l-0.27,1.38h-0.41L82.19,110.04z M83.26,110.36
			c-0.63,0-0.98,0.75-0.98,1.28c0,0.38,0.22,0.67,0.63,0.67c0.66,0,1-0.7,1-1.27C83.91,110.62,83.71,110.36,83.26,110.36z"/>
		<path class="st3" d="M85.83,110.04h0.39l-0.12,0.55h0.01c0.2-0.35,0.49-0.61,0.92-0.61c0.05,0,0.1-0.01,0.15,0l-0.1,0.45
			c-0.04,0-0.08,0-0.12,0c-0.1,0-0.15,0-0.25,0.03c-0.23,0.06-0.4,0.21-0.54,0.42c-0.11,0.16-0.17,0.41-0.21,0.6l-0.24,1.14H85.3
			L85.83,110.04z"/>
		<path class="st3" d="M88.21,111.46c-0.01,0.08-0.01,0.15-0.01,0.23c0,0.4,0.32,0.62,0.65,0.62c0.36,0,0.61-0.17,0.73-0.49h0.41
			c-0.13,0.57-0.59,0.87-1.14,0.87c-0.83,0-1.07-0.59-1.07-1.04c0-0.99,0.6-1.66,1.3-1.66c0.74,0,1.07,0.41,1.07,1.14
			c0,0.13-0.02,0.26-0.04,0.33H88.21z M89.73,111.09c0.03-0.36-0.13-0.73-0.59-0.73c-0.49,0-0.75,0.33-0.87,0.73H89.73z"/>
		<path class="st3" d="M91.28,112.07h0.54c-0.13,0.56-0.13,1.23-0.81,1.29l0.05-0.24c0.26-0.04,0.32-0.27,0.38-0.49h-0.27
			L91.28,112.07z"/>
		<path class="st3" d="M97.03,110.8c0.02-0.29-0.23-0.44-0.52-0.44c-0.25,0-0.54,0.07-0.54,0.33c0,0.24,0.33,0.34,0.66,0.47
			c0.33,0.14,0.67,0.32,0.67,0.72c0,0.57-0.54,0.8-1.03,0.8c-0.57,0-1.02-0.22-1.02-0.87h0.41c-0.02,0.38,0.3,0.5,0.64,0.5
			c0.27,0,0.57-0.1,0.57-0.39c0-0.25-0.33-0.35-0.66-0.49c-0.34-0.14-0.67-0.31-0.67-0.7c0-0.48,0.47-0.74,0.94-0.74
			c0.47,0,0.95,0.21,0.95,0.82H97.03z"/>
		<path class="st3" d="M99.89,109.98c0.67,0,1.05,0.38,1.05,1.07c0,0.84-0.51,1.63-1.39,1.63c-0.66,0-1.06-0.45-1.06-1.08
			C98.48,110.76,99,109.98,99.89,109.98z M99.58,112.31c0.6,0,0.94-0.71,0.94-1.22c0-0.4-0.21-0.73-0.66-0.73
			c-0.63,0-0.96,0.71-0.96,1.24C98.89,112.03,99.13,112.31,99.58,112.31z"/>
		<path class="st3" d="M102.65,109.06h0.41l-0.73,3.57h-0.41L102.65,109.06z"/>
		<path class="st3" d="M105.26,109.98c0.67,0,1.05,0.38,1.05,1.07c0,0.84-0.51,1.63-1.39,1.63c-0.66,0-1.06-0.45-1.06-1.08
			C103.85,110.76,104.38,109.98,105.26,109.98z M104.96,112.31c0.6,0,0.94-0.71,0.94-1.22c0-0.4-0.21-0.73-0.66-0.73
			c-0.63,0-0.96,0.71-0.96,1.24C104.27,112.03,104.51,112.31,104.96,112.31z"/>
		<path class="st3" d="M109.68,110.82c0.08-0.57,0.56-0.84,1.09-0.84c0.49,0,0.92,0.13,0.92,0.66c0,0.15-0.05,0.33-0.08,0.47
			l-0.16,0.7c-0.02,0.1-0.07,0.25-0.07,0.37c0,0.12,0.05,0.16,0.12,0.16c0.04,0,0.09-0.02,0.13-0.04l-0.06,0.32
			c-0.06,0.04-0.18,0.06-0.25,0.06c-0.23,0-0.35-0.14-0.33-0.36l-0.01-0.01c-0.18,0.24-0.42,0.37-0.84,0.37
			c-0.42,0-0.77-0.2-0.77-0.73c0-0.75,0.72-0.8,1.27-0.85c0.44-0.04,0.63-0.07,0.63-0.41c0-0.28-0.29-0.34-0.51-0.34
			c-0.32,0-0.63,0.13-0.68,0.46H109.68z M110.24,112.31c0.32,0,0.56-0.11,0.71-0.34c0.14-0.19,0.16-0.42,0.22-0.67h-0.01
			c-0.18,0.11-0.51,0.14-0.81,0.18c-0.3,0.05-0.56,0.14-0.56,0.47C109.79,112.19,110,112.31,110.24,112.31z"/>
		<path class="st3" d="M114.69,113.62h-0.42l0.27-1.32h-0.01c-0.19,0.25-0.48,0.39-0.79,0.39c-0.66,0-0.96-0.47-0.96-1.12
			c0-0.79,0.49-1.58,1.32-1.58c0.37,0,0.68,0.12,0.81,0.47h0.01l0.08-0.41h0.42L114.69,113.62z M113.84,112.31
			c0.66,0,0.96-0.77,0.96-1.32c0-0.39-0.24-0.64-0.65-0.64c-0.61,0-0.95,0.67-0.95,1.21C113.19,111.97,113.38,112.31,113.84,112.31z
			"/>
		<path class="st3" d="M118.34,112.63h-0.4l0.08-0.39h-0.01c-0.21,0.29-0.55,0.45-0.9,0.45c-0.47,0-0.7-0.21-0.7-0.66
			c0-0.11,0.03-0.3,0.07-0.5l0.31-1.47h0.41l-0.32,1.51c-0.02,0.09-0.06,0.31-0.06,0.4c0,0.24,0.19,0.36,0.44,0.36
			c0.46,0,0.81-0.41,0.9-0.84l0.29-1.43h0.41L118.34,112.63z"/>
		<path class="st3" d="M119.77,112.63l0.53-2.58h0.41l-0.53,2.58H119.77z M120.91,108.97h0.55l-0.66,0.71h-0.34L120.91,108.97z"/>
		<path class="st3" d="M121.81,112.07h0.54l-0.12,0.55h-0.54L121.81,112.07z"/>
	</g>
</g>
</svg>
