<?xml version="1.0" encoding="utf-8"?>
<!-- Generator: Adobe Illustrator 27.8.0, SVG Export Plug-In . SVG Version: 6.00 Build 0)  -->
<svg version="1.1" id="Capa_1" xmlns="http://www.w3.org/2000/svg" xmlns:xlink="http://www.w3.org/1999/xlink" x="0px" y="0px"
	 viewBox="0 0 688.86 369.18" style="enable-background:new 0 0 688.86 369.18;" xml:space="preserve">
<style type="text/css">
	.st0{fill:#31287C;}
	.st1{fill:none;stroke:#31287C;stroke-width:2;stroke-miterlimit:10;}
	.st2{fill:#E20613;}
	.st3{fill:#1D1D1B;}
	.st4{fill:#FFEA00;}
</style>
<path class="st0" d="M524.95,0.23h-361c-3.31,0-6,2.69-6,6v91.11c0,3.31,2.69,6,6,6h361c3.31,0,6-2.69,6-6V6.23
	C530.95,2.92,528.27,0.23,524.95,0.23z"/>
<g>
	<path class="st1" d="M136.54,51.78H1.16v316.15h686.6V51.78H552.37"/>
</g>
<g>
	<polygon class="st2" points="201.81,114.97 176.99,114.97 157.9,234.76 235.6,234.76 239.32,211.34 186.45,211.34 	"/>
	<path class="st2" d="M329.8,209.43l10.42-64.87h-23.85l-9.45,58.2c-4.38,4.43-6.44,5.88-9.46,7.72c-4.16,2.38-7.75,3.44-11.63,3.44
		c-5.32,0-7.34-1.87-7.9-2.52c-0.54-0.59-1.08-1.52-1.08-3.88c0-1.04,0.15-2.41,0.43-3.96l5.49-34.04c0.23-1.21,0.23-2.16,0.23-3.07
		c0-8.37-5.18-16.22-15.39-23.33l-3.41-2.38l-15.5,18.08l6.04,4.83c3.29,2.78,4.15,4.26,4.35,4.72l-6.07,37.52
		c-0.4,2.18-0.4,4.12-0.4,5.83c0,2.9,0.4,5.49,1.23,7.99c3.67,10.42,13.93,16.16,28.91,16.16c9.67,0,17.5-2.24,25.29-7.37
		c1.23,1.72,2.77,3.15,4.63,4.31c3.21,2.35,7.07,3.54,11.47,3.54c7.62,0,14.74-3.55,21.17-10.54l3.53-3.85l-18.55-13.1L329.8,209.43
		z"/>
	<path class="st2" d="M399.34,142.79c-12.21,0-24.03,5-33.29,14.09c-8.72,8.55-14.38,20.13-16.36,33.45
		c-0.58,3.68-0.87,6.88-0.87,9.77c0,9.04,2.33,16.67,6.93,22.68c6.58,8.6,16.73,12.96,30.16,12.96c12.44,0,25.86-3.9,38.81-11.27
		l3.83-2.18l-9.56-18.56l-4.03,1.94c-4.47,2.15-8.83,3.99-12.92,5.46c-4.25,1.46-8.41,2.17-12.73,2.17
		c-8.73,0-11.97-2.93-13.56-5.03c-1.93-2.7-2.86-6.05-2.86-10.26c0-1.85,0.14-3.75,0.43-5.76c1.12-7.16,3.73-13.29,7.98-18.75
		c1.87-2.4,3.28-4.04,7.05-6.52c2.42-1.43,5.62-2.21,9.04-2.21c4.44,0,7.21,1.19,8.23,2.21l0.13,0.13c0.75,0.7,1.76,1.97,1.76,5.03
		c0,0.71-0.11,1.57-0.23,2.55l-0.7,5.6h23.91l0.69-3.77c0.4-2.18,0.4-4.12,0.4-5.83c0-7.96-2.74-14.71-7.98-19.58
		C417.76,145.81,408.91,142.79,399.34,142.79z"/>
	<path class="st2" d="M507.15,144.72l-9.32,57.1c-0.46,1.56-0.99,2.67-1.55,3.33l-0.13,0.16c-0.44,0.55-1,1.11-1.62,1.6l-0.59,0.5
		c-0.87,0.73-1.95,1.64-3.43,2.75l-0.34,0.28c-1.33,1.21-3.59,2.53-5.68,3.32c-2.33,0.91-5.84,1.47-9.17,1.47
		c-5.17,0-6.2-1.3-6.79-2.04c-0.71-0.86-1.06-2.33-1.06-4.37c0-1.17,0.14-2.53,0.43-4.13l5.47-34.6c0.24-1.1,0.24-2.1,0.24-2.98
		c0-4.99-1.89-10.27-5.19-14.48c-2.28-2.9-5.59-6.05-9.85-9.36l-3.5-2.73l-15.55,18.66l5.99,4.79c3.41,2.89,4.09,4.4,4.21,4.75
		l-6.09,38.46c-0.4,2.18-0.4,4.12-0.4,5.83c0,5.14,1.27,9.77,3.66,13.34c3.29,5.04,8.79,8.57,15.83,10.19
		c4.61,1.15,9.07,1.73,13.27,1.73c7.1,0,12.64-1.62,16.93-3.54l-1.95,12.52c-0.47,3.19-1.71,5.9-3.67,8.05
		c-2.05,1.76-4.32,2.59-7.14,2.59c-3.07,0-3.9-0.99-4.44-1.92c-0.66-1.13-0.99-2.58-0.99-4.32c0-1.04,0.12-2.1,0.37-3.14l1.33-5.65
		h-23.82l-0.73,3.71c-0.49,2.47-0.73,4.88-0.73,7.18c0,6.31,1.81,12.16,5.3,17c4.98,6.57,12.25,9.91,21.61,9.91
		c9.15,0,17.76-3.17,24.21-8.91c6.24-5.49,10.57-13.91,12.18-23.76l6.14-39.11l10.4-64.18L507.15,144.72L507.15,144.72z"/>
</g>
<g>
	<path class="st3" d="M162.69,311.54h-3.83l0.48-2.26h10.19l-0.48,2.26h-3.66l-2.08,9.95h-2.7L162.69,311.54z"/>
	<path class="st3" d="M177.91,321.48h-2.32l0.27-1.23h-0.03c-0.79,0.97-1.83,1.47-3.09,1.47c-1.67,0-2.58-0.84-2.58-2.38
		c0-0.36,0.19-1.21,0.26-1.52l1.09-5.18h2.43l-1.08,5.18c-0.07,0.26-0.15,0.84-0.15,1.08c0,0.53,0.6,0.91,1.16,0.91
		c1.47,0,2.22-1.23,2.48-2.46l0.99-4.7h2.43L177.91,321.48z"/>
	<path class="st3" d="M188.83,315.23c-0.02-0.75-0.44-1.2-1.37-1.2c-0.85,0-1.49,0.24-1.49,0.87c0,0.39,0.29,0.63,1.11,0.89
		l1.21,0.39c1.3,0.43,2.32,1.04,2.32,2.53c0,2.19-2.17,3.01-4.2,3.01c-1.73,0-3.76-0.68-3.76-2.75v-0.36h2.26v0.29
		c0,0.8,0.91,1.2,1.74,1.2c0.74,0,1.54-0.26,1.54-1.06c0-0.62-0.34-0.8-0.87-0.97l-1.86-0.6c-1.21-0.39-1.91-0.87-1.91-2.26
		c0-2.08,2.2-2.8,3.91-2.8c1.93,0,3.66,0.55,3.62,2.82L188.83,315.23L188.83,315.23z"/>
	<path class="st3" d="M208.39,315.71c0-1.04-0.56-1.47-1.62-1.47c-1.85,0-2.48,2.22-2.48,3.74c0,1.06,0.44,1.91,1.67,1.91
		c1.08,0,1.69-0.77,1.97-1.64h2.43c-0.73,2.2-2.27,3.47-4.56,3.47c-2.46,0-3.93-1.21-3.93-3.79c0-3.01,1.81-5.52,4.99-5.52
		c2.15,0,3.91,0.96,3.96,3.3L208.39,315.71L208.39,315.71z"/>
	<path class="st3" d="M219.07,312.41c2.43,0,4.12,1.2,4.12,3.74c0,3.11-1.93,5.57-5.14,5.57c-2.46,0-4.05-1.28-4.05-3.81
		C213.99,314.92,215.92,312.41,219.07,312.41z M218.16,319.89c1.81,0,2.6-2.22,2.6-3.71c0-1.18-0.51-1.95-1.78-1.95
		c-1.78,0-2.56,2.19-2.56,3.67C216.42,318.95,217.02,319.89,218.16,319.89z"/>
	<path class="st3" d="M228.22,312.65h2.32l-0.27,1.25h0.03c0.73-0.99,1.83-1.49,3.09-1.49c1.06,0,1.93,0.48,2.14,1.54
		c0.6-0.91,1.86-1.54,2.99-1.54c1.38,0,2.68,0.72,2.68,2.24c0,0.55-0.15,1.11-0.26,1.64l-1.09,5.2h-2.43l1.16-5.59
		c0.03-0.26,0.07-0.46,0.07-0.63c0-0.53-0.45-0.94-1.06-0.94c-1.3,0-2.03,1.35-2.27,2.43l-0.99,4.73h-2.44l1.16-5.59
		c0.03-0.26,0.07-0.46,0.07-0.63c0-0.53-0.45-0.94-1.06-0.94c-1.3,0-2.03,1.35-2.27,2.43l-0.99,4.73h-2.43L228.22,312.65z"/>
	<path class="st3" d="M246.24,312.65h2.34l-0.24,1.09l0.03,0.03c0.55-0.96,1.57-1.37,2.65-1.37c2.12,0,3.35,1.37,3.35,3.49
		c0,2.91-1.54,5.83-4.8,5.83c-1.03,0-2.1-0.44-2.48-1.42h-0.05l-0.92,4.29h-2.43L246.24,312.65z M247.56,317.98
		c0,1.13,0.56,1.91,1.74,1.91c1.83,0,2.65-2.14,2.65-3.69c0-1.06-0.58-1.97-1.73-1.97C248.42,314.24,247.56,316.46,247.56,317.98z"
		/>
	<path class="st3" d="M259.42,312.65h2.31l-0.36,1.59l0.03,0.03c0.55-1.21,1.74-1.86,3.04-1.86c0.26,0,0.5,0.02,0.75,0.05l-0.5,2.36
		c-0.34-0.07-0.68-0.15-1.03-0.15c-1.86,0-2.53,1.4-2.85,2.91l-0.82,3.91h-2.43L259.42,312.65z"/>
	<path class="st3" d="M268.08,315.33c0.31-2.22,2.19-2.92,4.19-2.92c1.57,0,3.71,0.34,3.67,2.32c0,0.38-0.08,0.94-0.19,1.49
		l-0.79,3.55c-0.09,0.31-0.12,0.85-0.12,1.2c0,0.15,0.03,0.36,0.08,0.51h-2.43v-0.87c-0.67,0.75-1.71,1.11-2.7,1.11
		c-1.93,0-2.87-1.09-2.87-2.32c0-1.69,1.28-2.75,3.38-3.01c2.29-0.27,3.37-0.15,3.37-1.28c0-0.87-0.92-1.08-1.54-1.08
		c-0.87,0-1.64,0.41-1.79,1.3L268.08,315.33L268.08,315.33z M273.21,317.24c-0.62,0.36-1.35,0.38-2.05,0.43
		c-0.92,0.1-1.79,0.32-1.79,1.44c0,0.67,0.63,0.99,1.33,0.99c1.5,0,2-1.04,2.27-2L273.21,317.24z"/>
	<path class="st3" d="M285.51,315.23c-0.02-0.75-0.44-1.2-1.37-1.2c-0.85,0-1.49,0.24-1.49,0.87c0,0.39,0.29,0.63,1.11,0.89
		l1.21,0.39c1.3,0.43,2.32,1.04,2.32,2.53c0,2.19-2.17,3.01-4.21,3.01c-1.73,0-3.76-0.68-3.76-2.75v-0.36h2.26v0.29
		c0,0.8,0.91,1.2,1.74,1.2c0.73,0,1.54-0.26,1.54-1.06c0-0.62-0.34-0.8-0.87-0.97l-1.86-0.6c-1.21-0.39-1.91-0.87-1.91-2.26
		c0-2.08,2.21-2.8,3.91-2.8c1.93,0,3.66,0.55,3.62,2.82L285.51,315.23L285.51,315.23z"/>
	<path class="st3" d="M304.59,320.39l-0.03-0.03c-0.55,0.96-1.57,1.37-2.65,1.37c-2.12,0-3.37-1.37-3.37-3.49
		c0-2.91,1.56-5.83,4.82-5.83c1.03,0,2.1,0.44,2.48,1.42h0.03l0.97-4.55h2.43l-2.58,12.2h-2.34L304.59,320.39z M300.97,317.93
		c0,1.06,0.58,1.97,1.73,1.97c1.81,0,2.67-2.22,2.67-3.74c0-1.13-0.56-1.91-1.74-1.91C301.79,314.24,300.97,316.37,300.97,317.93z"
		/>
	<path class="st3" d="M313.95,317.65c-0.02,0.22-0.02,0.38-0.02,0.51c0,1.03,0.63,1.73,1.95,1.73c0.97,0,1.45-0.65,1.81-1.21h2.43
		c-0.77,1.98-2.03,3.04-4.58,3.04c-2.36,0-3.93-1.35-3.93-3.86c0-2.82,1.86-5.45,4.87-5.45c2.46,0,4.12,1.3,4.12,3.86
		c0,0.48-0.05,0.96-0.14,1.38L313.95,317.65L313.95,317.65z M318.26,316.12c0-0.91-0.22-1.88-1.64-1.88c-1.37,0-2.05,0.89-2.41,1.88
		H318.26z"/>
	<path class="st3" d="M337.27,315.23c-0.02-0.75-0.44-1.2-1.37-1.2c-0.85,0-1.49,0.24-1.49,0.87c0,0.39,0.29,0.63,1.11,0.89
		l1.21,0.39c1.3,0.43,2.32,1.04,2.32,2.53c0,2.19-2.17,3.01-4.21,3.01c-1.73,0-3.76-0.68-3.76-2.75v-0.36h2.26v0.29
		c0,0.8,0.91,1.2,1.74,1.2c0.73,0,1.54-0.26,1.54-1.06c0-0.62-0.34-0.8-0.87-0.97l-1.86-0.6c-1.21-0.39-1.91-0.87-1.91-2.26
		c0-2.08,2.21-2.8,3.91-2.8c1.93,0,3.66,0.55,3.62,2.82L337.27,315.23L337.27,315.23z"/>
	<path class="st3" d="M344.43,312.65h2.44l-1.88,8.84h-2.44L344.43,312.65z M347.14,311.28h-2.44l0.44-2h2.44L347.14,311.28z"/>
	<path class="st3" d="M352.32,317.65c-0.02,0.22-0.02,0.38-0.02,0.51c0,1.03,0.63,1.73,1.95,1.73c0.97,0,1.45-0.65,1.81-1.21h2.43
		c-0.77,1.98-2.03,3.04-4.58,3.04c-2.36,0-3.93-1.35-3.93-3.86c0-2.82,1.86-5.45,4.87-5.45c2.46,0,4.12,1.3,4.12,3.86
		c0,0.48-0.05,0.96-0.14,1.38L352.32,317.65L352.32,317.65z M356.63,316.12c0-0.91-0.22-1.88-1.64-1.88c-1.37,0-2.05,0.89-2.41,1.88
		H356.63z"/>
	<path class="st3" d="M363.89,312.65h2.32l-0.27,1.25h0.03c0.74-0.99,1.83-1.49,3.09-1.49c1.06,0,1.93,0.48,2.14,1.54
		c0.6-0.91,1.86-1.54,2.99-1.54c1.38,0,2.68,0.72,2.68,2.24c0,0.55-0.15,1.11-0.26,1.64l-1.09,5.2h-2.43l1.16-5.59
		c0.04-0.26,0.07-0.46,0.07-0.63c0-0.53-0.44-0.94-1.06-0.94c-1.3,0-2.03,1.35-2.27,2.43l-0.99,4.73h-2.44l1.16-5.59
		c0.04-0.26,0.07-0.46,0.07-0.63c0-0.53-0.44-0.94-1.06-0.94c-1.3,0-2.03,1.35-2.27,2.43l-0.99,4.73h-2.43L363.89,312.65z"/>
	<path class="st3" d="M381.91,312.65h2.34l-0.24,1.09l0.03,0.03c0.55-0.96,1.57-1.37,2.65-1.37c2.12,0,3.35,1.37,3.35,3.49
		c0,2.91-1.54,5.83-4.8,5.83c-1.03,0-2.1-0.44-2.48-1.42h-0.05l-0.92,4.29h-2.43L381.91,312.65z M383.23,317.98
		c0,1.13,0.56,1.91,1.74,1.91c1.83,0,2.65-2.14,2.65-3.69c0-1.06-0.58-1.97-1.73-1.97C384.08,314.24,383.23,316.46,383.23,317.98z"
		/>
	<path class="st3" d="M395.08,312.65h2.31l-0.36,1.59l0.03,0.03c0.55-1.21,1.74-1.86,3.04-1.86c0.26,0,0.5,0.02,0.75,0.05l-0.5,2.36
		c-0.34-0.07-0.68-0.15-1.03-0.15c-1.86,0-2.53,1.4-2.85,2.91l-0.82,3.91h-2.43L395.08,312.65z"/>
	<path class="st3" d="M405.23,317.65c-0.02,0.22-0.02,0.38-0.02,0.51c0,1.03,0.63,1.73,1.95,1.73c0.97,0,1.45-0.65,1.81-1.21h2.43
		c-0.77,1.98-2.03,3.04-4.58,3.04c-2.36,0-3.93-1.35-3.93-3.86c0-2.82,1.86-5.45,4.87-5.45c2.46,0,4.12,1.3,4.12,3.86
		c0,0.48-0.05,0.96-0.14,1.38L405.23,317.65L405.23,317.65z M409.54,316.12c0-0.91-0.22-1.88-1.64-1.88c-1.37,0-2.05,0.89-2.41,1.88
		H409.54z"/>
	<path class="st3" d="M415.48,318.85h2.7c-0.62,2.46-0.48,5.37-3.85,5.49l0.26-1.21c1.01-0.17,1.33-0.67,1.52-1.64h-1.18
		L415.48,318.85z"/>
	<path class="st3" d="M435.93,315.23c-0.02-0.75-0.44-1.2-1.37-1.2c-0.85,0-1.49,0.24-1.49,0.87c0,0.39,0.29,0.63,1.11,0.89
		l1.21,0.39c1.3,0.43,2.32,1.04,2.32,2.53c0,2.19-2.17,3.01-4.2,3.01c-1.73,0-3.76-0.68-3.76-2.75v-0.36h2.26v0.29
		c0,0.8,0.91,1.2,1.74,1.2c0.74,0,1.54-0.26,1.54-1.06c0-0.62-0.34-0.8-0.87-0.97l-1.86-0.6c-1.21-0.39-1.91-0.87-1.91-2.26
		c0-2.08,2.2-2.8,3.91-2.8c1.93,0,3.66,0.55,3.62,2.82L435.93,315.23L435.93,315.23z"/>
	<path class="st3" d="M446.66,312.41c2.43,0,4.12,1.2,4.12,3.74c0,3.11-1.93,5.57-5.14,5.57c-2.46,0-4.05-1.28-4.05-3.81
		C441.58,314.92,443.52,312.41,446.66,312.41z M445.75,319.89c1.81,0,2.6-2.22,2.6-3.71c0-1.18-0.51-1.95-1.78-1.95
		c-1.78,0-2.56,2.19-2.56,3.67C444.01,318.95,444.61,319.89,445.75,319.89z"/>
	<path class="st3" d="M456.57,309.28H459l-2.6,12.2h-2.43L456.57,309.28z"/>
	<path class="st3" d="M466.48,312.41c2.43,0,4.12,1.2,4.12,3.74c0,3.11-1.93,5.57-5.14,5.57c-2.46,0-4.05-1.28-4.05-3.81
		C461.4,314.92,463.33,312.41,466.48,312.41z M465.57,319.89c1.81,0,2.6-2.22,2.6-3.71c0-1.18-0.51-1.95-1.78-1.95
		c-1.78,0-2.56,2.19-2.56,3.67C463.83,318.95,464.43,319.89,465.57,319.89z"/>
	<path class="st3" d="M482.4,315.33c0.31-2.22,2.19-2.92,4.19-2.92c1.57,0,3.71,0.34,3.67,2.32c0,0.38-0.08,0.94-0.19,1.49
		l-0.79,3.55c-0.09,0.31-0.12,0.85-0.12,1.2c0,0.15,0.03,0.36,0.08,0.51h-2.43v-0.87c-0.67,0.75-1.71,1.11-2.7,1.11
		c-1.93,0-2.87-1.09-2.87-2.32c0-1.69,1.28-2.75,3.38-3.01c2.29-0.27,3.37-0.15,3.37-1.28c0-0.87-0.92-1.08-1.54-1.08
		c-0.87,0-1.64,0.41-1.79,1.3L482.4,315.33L482.4,315.33z M487.53,317.24c-0.62,0.36-1.35,0.38-2.05,0.43
		c-0.92,0.1-1.79,0.32-1.79,1.44c0,0.67,0.63,0.99,1.33,0.99c1.5,0,2-1.04,2.27-2L487.53,317.24z"/>
	<path class="st3" d="M501.38,324.59h-2.43l0.8-3.81h-0.03c-0.53,0.56-1.28,0.94-2.5,0.94c-2.27,0-3.25-1.71-3.25-3.76
		c0-2.73,1.57-5.55,4.58-5.55c1.21,0,2.34,0.39,2.77,1.62h0.03l0.29-1.38h2.24L501.38,324.59z M496.41,317.93
		c0,1.11,0.48,1.97,1.79,1.97c1.74,0,2.63-2.22,2.63-3.79c0-1.08-0.65-1.86-1.76-1.86C497.18,314.24,496.41,316.41,496.41,317.93z"
		/>
	<path class="st3" d="M515.05,321.48h-2.32l0.27-1.23h-0.03c-0.79,0.97-1.83,1.47-3.09,1.47c-1.67,0-2.58-0.84-2.58-2.38
		c0-0.36,0.19-1.21,0.26-1.52l1.09-5.18h2.43l-1.08,5.18c-0.07,0.26-0.15,0.84-0.15,1.08c0,0.53,0.6,0.91,1.16,0.91
		c1.47,0,2.22-1.23,2.48-2.46l0.99-4.7h2.43L515.05,321.48z"/>
	<path class="st3" d="M522.19,321.48h-2.44l1.88-8.84h2.44L522.19,321.48z M523.95,311.55h-1.71l1.5-2.43h2.6L523.95,311.55z"/>
	<path class="st3" d="M527.35,318.85h2.7l-0.56,2.63h-2.7L527.35,318.85z"/>
</g>
<g>
	<path class="st4" d="M232.15,69.58c0,2.16-2.03,4-4.38,4c-2.41,0-4.51-1.84-4.51-4V47.75l-7.23,14.22
		c-0.82,1.65-2.41,2.41-4.19,2.41c-1.71,0-3.3-0.76-4.12-2.41l-7.23-14.22v21.83c0,2.16-2.09,4-4.57,4c-2.41,0-4.32-1.84-4.32-4
		v-37.7c0-2.41,1.97-4.19,4.57-4.19c2.03,0,3.62,0.83,4.44,2.48l11.3,22.4l11.3-22.47c0.89-1.84,2.6-2.41,4.38-2.41
		c2.6,0,4.57,1.9,4.57,4.19v37.7H232.15z"/>
	<path class="st4" d="M249.42,69.51c0,2.22-1.9,3.93-4.38,3.93s-4.38-1.71-4.38-3.93v-25c0-2.09,1.9-3.87,4.38-3.87
		c2.47,0,4.38,1.78,4.38,3.87V69.51z"/>
	<ellipse class="st4" cx="245.04" cy="32.14" rx="4.95" ry="4.44"/>
	<path class="st4" d="M284.76,69.51c0,2.16-1.59,3.87-4.38,3.87S276,71.67,276,69.51V52.95c0-3.17-1.59-5.14-4.12-5.14
		c-1.33,0-2.92,0.44-4.89,1.33c0.06,0.44,0.13,0.82,0.13,1.21v19.17c0,2.16-1.46,3.87-4.38,3.87s-4.38-1.71-4.38-3.87V50.29
		c0-2.09-0.25-2.28-0.51-2.67c-0.89-1.21-1.08-1.65-1.08-2.47c0-2.09,1.84-3.68,4.25-3.68c1.33,0,2.47,0.7,3.36,1.84
		c2.86-1.9,5.84-2.73,8.38-2.73c8,0,11.99,4.95,11.99,12.38v16.55H284.76z"/>
	<path class="st4" d="M302.34,69.51c0,2.22-1.9,3.93-4.38,3.93s-4.38-1.71-4.38-3.93v-25c0-2.09,1.9-3.87,4.38-3.87
		c2.47,0,4.38,1.78,4.38,3.87V69.51z"/>
	<ellipse class="st4" cx="297.97" cy="32.14" rx="4.95" ry="4.44"/>
	<path class="st4" d="M354.83,69.51c0,2.16-1.46,3.87-4.38,3.87s-4.38-1.71-4.38-3.87V51.93c0-2.22-1.33-4-3.68-4
		c-1.65,0-3.36,0.83-5.08,2.22c0.06,0.57,0.13,1.08,0.13,1.65v17.71c0,2.16-1.46,3.87-4.38,3.87s-4.38-1.71-4.38-3.87V53.07
		c0-2.92-0.51-5.14-3.3-5.14c-1.59,0-3.49,0.7-5.39,1.65c0.06,0.19,0.06,0.51,0.06,0.7v19.23c0,2.16-1.46,3.87-4.38,3.87
		s-4.38-1.71-4.38-3.87V50.28c0-2.09-0.25-2.28-0.51-2.67c-0.89-1.21-1.08-1.71-1.08-2.41c0-2.28,1.97-3.74,4.12-3.74
		c1.46,0,2.54,0.7,3.36,1.78c2.86-1.78,5.84-2.79,8.57-2.79c2.67,0,5.08,0.95,7.36,2.79c3.43-1.84,6.16-2.79,9.58-2.79
		c7.49,0,12.12,4.57,12.12,11.36v17.7C354.81,69.51,354.83,69.51,354.83,69.51z"/>
	<path class="st4" d="M411.06,48.51c-2.73-0.13-3.87-0.25-6.09,0.63c0.06,0.44,0.13,0.82,0.13,1.21v19.17c0,2.22-1.9,3.93-4.38,3.93
		s-4.38-1.71-4.38-3.93V50.35c0-1.46-0.19-2.22-0.7-2.98c-0.51-0.63-0.89-1.14-0.89-2.09c0-2.28,2.03-3.81,4.32-3.81
		c1.33,0,2.47,0.82,3.36,1.97c2.92-1.71,5.84-2.73,7.87-2.73c4,0,5.2,1.65,5.2,3.81C415.5,46.99,413.47,48.64,411.06,48.51z"/>
	<path class="st4" d="M442.28,73.45c-1.59,0-2.79-0.63-3.62-1.78l-8.57-11.61l-0.7,0.63v8.82c0,2.22-1.9,3.93-4.38,3.93
		s-4.38-1.71-4.38-3.93V31.12c0-2.22,1.9-3.93,4.38-3.93s4.38,1.71,4.38,3.93v20.12l8.76-9.46c0.76-0.76,1.97-1.08,2.98-1.08
		c2.41,0,4.25,1.59,4.25,3.74c0,1.02-0.38,1.9-1.21,2.67h0.06l-7.74,8.19l9.33,12.31c0.44,0.63,0.7,1.65,0.7,2.35
		C446.4,72.12,444.56,73.45,442.28,73.45z"/>
	<path class="st4" d="M494.57,73.26c-9.84,0-12.38-4.82-12.38-13.45V35.19c0-2.16,1.59-3.87,4.38-3.87s4.38,1.78,4.38,3.87v7.04h4.7
		c2.35,0,4.19,1.65,4.19,3.81s-1.84,3.74-4.19,3.74h-4.7v9.58c0,4.7,0.38,6.35,3.43,6.35c0.57,0,0.95-0.06,1.08-0.06
		c4,0,5.2,1.08,5.2,3.43C500.67,72.75,497.75,73.26,494.57,73.26z"/>
	<path class="st4" d="M389.55,67.54c-1.08-0.45-2.03-0.26-2.03-2.16v-11.8c0-8.57-3.75-13.14-12.95-13.14
		c-5.27,0-10.85,1.53-10.85,5.27c0,1.59,1.01,3.68,3.68,3.68c1.2,0,1.9-0.44,2.41-0.63c1.26-0.58,2.34-1.02,4.12-1.02
		c3.23,0,4.82,1.4,4.82,4.38v2.03c-1.65-0.5-3.3-0.63-5.01-0.63c-8.37,0-12.56,3.24-12.56,9.71v0.19c0,6.03,3.93,10.03,11.29,10.03
		c3.56,0,6.22-0.96,8.57-2.86c1.46,2.04,3.04,2.67,5.39,2.67c3.37,0,4.57-1.27,4.58-3.31C391.01,68.62,390.5,67.92,389.55,67.54z
		 M378.76,64.75c-1.65,1.27-3.3,1.65-4.95,1.65c-2.73,0-3.94-0.83-3.94-2.92v-0.19c0-1.9,0.7-3.61,4.38-3.62
		c1.27,0,2.92,0.19,4.51,0.51V64.75z"/>
	<path class="st4" d="M471.85,64.37c-1.07,0-1.65,0.25-1.9,0.38c-2.03,0.89-3.68,1.4-5.71,1.4c-3.43,0-5.08-1.4-5.08-3.57v-2.09
		c1.84,0.25,3.24,0.38,4.89,0.38c8.57,0,12.31-3.56,12.31-9.65c0-6.41-4.13-10.79-12.44-10.79c-8.82,0-13.52,4.89-13.52,11.3v10.6
		c0,6.29,4.82,11.11,13.2,11.11c4.07,0,12.19-1.14,12.19-5.58C475.79,66.4,474.9,64.37,471.85,64.37z M459.16,51.36
		c0-2.53,1.65-4.12,4.7-4.12c2.48,0,3.81,1.01,3.81,3.55c0,2.73-1.53,3.56-3.94,3.55c-0.64,0-2.54-0.06-4.57-0.25V51.36z"/>
</g>
</svg>
